<svg xmlns="http://www.w3.org/2000/svg" width="1280" height="720" viewBox="0 0 1280 720"><rect width="100%" height="100%" fill="#1e2633"/><path fill="#9ca3af" d="M304.155 319.355h10.9v66.52h-6.35q-1.47 0-2.46-.48-.99-.49-1.91-1.64l-34.73-44.34q.28 3.04.28 5.61v40.85h-10.9v-66.52h6.48q.78 0 1.36.07.57.07 1.01.28t.85.6q.42.39.92 1.03l34.87 44.53q-.14-1.61-.23-3.17-.09-1.57-.09-2.9zm44.8 18.59q5.25 0 9.55 1.7t7.36 4.83 4.71 7.64q1.66 4.5 1.66 10.07 0 5.61-1.66 10.12-1.65 4.51-4.71 7.68-3.06 3.18-7.36 4.88t-9.55 1.7q-5.29 0-9.61-1.7-4.33-1.7-7.39-4.88-3.05-3.17-4.73-7.68t-1.68-10.12q0-5.57 1.68-10.07 1.68-4.51 4.73-7.64 3.06-3.13 7.39-4.83 4.32-1.7 9.61-1.7m0 39.88q5.89 0 8.72-3.96 2.83-3.95 2.83-11.59 0-7.63-2.83-11.64-2.83-4-8.72-4-5.98 0-8.85 4.03-2.88 4.02-2.88 11.61t2.88 11.57q2.87 3.98 8.85 3.98m54.7-39.15h11.4v47.2h-11.4zm12.97-13.75q0 1.47-.6 2.76t-1.59 2.25q-.99.97-2.32 1.55-1.33.57-2.85.57-1.47 0-2.79-.57-1.31-.58-2.27-1.55-.97-.96-1.54-2.25-.58-1.29-.58-2.76 0-1.52.58-2.85.57-1.34 1.54-2.3.96-.97 2.27-1.54 1.32-.58 2.79-.58 1.52 0 2.85.58 1.33.57 2.32 1.54.99.96 1.59 2.3.6 1.33.6 2.85m21.39 60.95h-11.36v-47.2h6.94q2.21 0 2.9 2.07l.74 3.5q1.24-1.38 2.59-2.53 1.36-1.15 2.9-1.98t3.31-1.31q1.78-.48 3.89-.48 4.46 0 7.34 2.41 2.87 2.42 4.3 6.42 1.1-2.35 2.76-4.03 1.66-1.67 3.63-2.73 1.98-1.06 4.21-1.57 2.23-.5 4.49-.5 3.91 0 6.94 1.19 3.04 1.2 5.11 3.5t3.15 5.61 1.08 7.59v30.04h-11.36v-30.04q0-4.51-1.98-6.78-1.98-2.28-5.79-2.28-1.75 0-3.25.6-1.49.6-2.62 1.72-1.13 1.13-1.77 2.83t-.64 3.91v30.04h-11.41v-30.04q0-4.74-1.91-6.9t-5.59-2.16q-2.48 0-4.62 1.22t-3.98 3.33zm90.62-12.19v-7.96q-4.92.23-8.28.85t-5.38 1.59q-2.03.97-2.9 2.25-.88 1.29-.88 2.81 0 2.99 1.77 4.28 1.78 1.29 4.63 1.29 3.49 0 6.05-1.27 2.55-1.26 4.99-3.84m-24.01-24.79-2.03-3.64q8.14-7.45 19.6-7.45 4.14 0 7.4 1.36 3.27 1.35 5.52 3.77 2.26 2.41 3.43 5.77t1.17 7.36v29.81h-5.15q-1.61 0-2.48-.48-.88-.49-1.38-1.96l-1.01-3.4q-1.8 1.61-3.5 2.83t-3.54 2.04q-1.84.83-3.94 1.27-2.09.44-4.62.44-2.99 0-5.52-.81-2.53-.8-4.37-2.41t-2.85-4.01q-1.01-2.39-1.01-5.56 0-1.8.6-3.57.59-1.77 1.95-3.38t3.52-3.03q2.16-1.43 5.31-2.49t7.34-1.72q4.19-.67 9.57-.81v-2.76q0-4.74-2.03-7.01-2.02-2.28-5.84-2.28-2.76 0-4.58.64-1.81.65-3.19 1.45-1.38.81-2.51 1.45-1.13.65-2.51.65-1.19 0-2.02-.62-.83-.63-1.33-1.45m63.02 12.23q2.11 0 3.68-.57 1.56-.58 2.59-1.59 1.04-1.01 1.57-2.44.53-1.42.53-3.13 0-3.49-2.1-5.54-2.09-2.05-6.27-2.05-4.19 0-6.28 2.05-2.1 2.05-2.1 5.54 0 1.66.53 3.09.53 1.42 1.57 2.46 1.03 1.03 2.62 1.61 1.59.57 3.66.57m12.83 26.87q0-1.38-.83-2.26-.83-.87-2.25-1.35-1.43-.49-3.34-.72t-4.05-.34q-2.13-.12-4.41-.21t-4.44-.37q-1.89 1.06-3.06 2.49-1.17 1.42-1.17 3.31 0 1.24.62 2.32t1.98 1.86q1.35.79 3.52 1.22 2.16.44 5.29.44 3.17 0 5.47-.48 2.3-.49 3.79-1.34 1.5-.85 2.19-2.02t.69-2.55m-2.25-47.71h13.57v4.24q0 2.02-2.44 2.48l-4.23.78q.96 2.44.96 5.34 0 3.49-1.4 6.32t-3.89 4.81q-2.48 1.98-5.86 3.06t-7.29 1.08q-1.38 0-2.67-.14t-2.53-.37q-2.21 1.34-2.21 2.99 0 1.43 1.31 2.1 1.31.66 3.47.94 2.17.28 4.93.34 2.76.07 5.65.3 2.9.23 5.66.81 2.76.57 4.92 1.82 2.17 1.24 3.48 3.38t1.31 5.49q0 3.13-1.54 6.08-1.54 2.94-4.47 5.24-2.92 2.3-7.17 3.7-4.26 1.41-9.68 1.41-5.34 0-9.3-1.04-3.95-1.03-6.57-2.76-2.63-1.72-3.91-3.98-1.29-2.25-1.29-4.69 0-3.31 2-5.54t5.5-3.57q-1.89-.96-2.99-2.57-1.11-1.61-1.11-4.24 0-1.05.39-2.18t1.15-2.23q.76-1.11 1.91-2.1 1.15-.98 2.72-1.77-3.59-1.93-5.64-5.15t-2.05-7.54q0-3.5 1.41-6.33 1.4-2.83 3.91-4.83 2.5-2 5.93-3.06 3.43-1.05 7.48-1.05 3.03 0 5.7.62t4.88 1.81m29.71 16.56h21.44q0-2.2-.62-4.16-.62-1.95-1.87-3.43-1.24-1.47-3.15-2.32t-4.44-.85q-4.92 0-7.75 2.81-2.83 2.8-3.61 7.95m28.98 6.86h-29.21q.28 3.63 1.29 6.28 1.01 2.64 2.67 4.37 1.65 1.72 3.93 2.57t5.04.85 4.76-.64 3.49-1.43q1.5-.78 2.63-1.42 1.12-.65 2.18-.65 1.43 0 2.12 1.06l3.26 4.14q-1.88 2.21-4.23 3.71-2.34 1.49-4.9 2.39-2.55.89-5.2 1.26-2.64.37-5.12.37-4.93 0-9.16-1.63-4.23-1.64-7.36-4.83-3.13-3.2-4.92-7.92-1.79-4.71-1.79-10.92 0-4.83 1.56-9.09 1.56-4.25 4.48-7.4 2.93-3.15 7.13-4.99 4.21-1.84 9.5-1.84 4.47 0 8.24 1.42 3.77 1.43 6.48 4.17 2.72 2.73 4.26 6.71t1.54 9.09q0 2.57-.55 3.47t-2.12.9m58.47 9.98v-7.96q-4.92.23-8.28.85t-5.38 1.59q-2.03.97-2.9 2.25-.88 1.29-.88 2.81 0 2.99 1.77 4.28 1.78 1.29 4.63 1.29 3.49 0 6.05-1.27 2.55-1.26 4.99-3.84m-24.01-24.79-2.03-3.64q8.14-7.45 19.6-7.45 4.14 0 7.4 1.36 3.27 1.35 5.52 3.77 2.26 2.41 3.43 5.77t1.17 7.36v29.81h-5.15q-1.61 0-2.48-.48-.88-.49-1.38-1.96l-1.01-3.4q-1.8 1.61-3.5 2.83t-3.54 2.04q-1.84.83-3.94 1.27-2.09.44-4.62.44-2.99 0-5.52-.81-2.53-.8-4.37-2.41t-2.85-4.01q-1.01-2.39-1.01-5.56 0-1.8.6-3.57.59-1.77 1.95-3.38t3.52-3.03q2.16-1.43 5.31-2.49t7.34-1.72q4.19-.67 9.57-.81v-2.76q0-4.74-2.03-7.01-2.02-2.28-5.84-2.28-2.76 0-4.58.64-1.81.65-3.19 1.45-1.38.81-2.51 1.45-1.13.65-2.51.65-1.19 0-2.02-.62-.83-.63-1.33-1.45m79.35-10.22h8.97l-18.73 47.2h-10.3l-18.72-47.2h9.38q1.29 0 2.14.6t1.13 1.52l9.11 25.21q.73 2.21 1.28 4.32.56 2.12.97 4.23.46-2.11 1.01-4.23.55-2.11 1.34-4.32l9.29-25.21q.32-.92 1.15-1.52t1.98-.6m39.92 35.01v-7.96q-4.92.23-8.28.85-3.35.62-5.38 1.59-2.02.97-2.9 2.25-.87 1.29-.87 2.81 0 2.99 1.77 4.28t4.62 1.29q3.5 0 6.05-1.27 2.56-1.26 4.99-3.84m-24.01-24.79-2.02-3.64q8.14-7.45 19.59-7.45 4.14 0 7.41 1.36 3.27 1.35 5.52 3.77 2.25 2.41 3.43 5.77 1.17 3.36 1.17 7.36v29.81h-5.15q-1.61 0-2.49-.48-.87-.49-1.38-1.96l-1.01-3.4q-1.79 1.61-3.49 2.83-1.71 1.22-3.55 2.04-1.84.83-3.93 1.27t-4.62.44q-2.99 0-5.52-.81-2.53-.8-4.37-2.41t-2.85-4.01q-1.02-2.39-1.02-5.56 0-1.8.6-3.57t1.96-3.38q1.35-1.61 3.52-3.03 2.16-1.43 5.31-2.49t7.34-1.72q4.18-.67 9.56-.81v-2.76q0-4.74-2.02-7.01-2.02-2.28-5.84-2.28-2.76 0-4.58.64-1.82.65-3.2 1.45-1.38.81-2.5 1.45-1.13.65-2.51.65-1.2 0-2.02-.62-.83-.63-1.34-1.45m46.14-10.22h11.41v47.2h-11.41zm12.97-13.75q0 1.47-.6 2.76-.59 1.29-1.58 2.25-.99.97-2.33 1.55-1.33.57-2.85.57-1.47 0-2.78-.57-1.31-.58-2.28-1.55-.96-.96-1.54-2.25-.57-1.29-.57-2.76 0-1.52.57-2.85.58-1.34 1.54-2.3.97-.97 2.28-1.54 1.31-.58 2.78-.58 1.52 0 2.85.58 1.34.57 2.33 1.54.99.96 1.58 2.3.6 1.33.6 2.85m10.17-7.41h11.36v68.36h-11.36zm47.65 56.17v-7.96q-4.92.23-8.28.85-3.35.62-5.38 1.59-2.02.97-2.9 2.25-.87 1.29-.87 2.81 0 2.99 1.77 4.28t4.62 1.29q3.5 0 6.05-1.27 2.56-1.26 4.99-3.84m-24.01-24.79-2.02-3.64q8.14-7.45 19.59-7.45 4.14 0 7.41 1.36 3.27 1.35 5.52 3.77 2.25 2.41 3.43 5.77 1.17 3.36 1.17 7.36v29.81h-5.15q-1.61 0-2.49-.48-.87-.49-1.38-1.96l-1.01-3.4q-1.79 1.61-3.49 2.83-1.71 1.22-3.55 2.04-1.84.83-3.93 1.27t-4.62.44q-2.99 0-5.52-.81-2.53-.8-4.37-2.41t-2.85-4.01q-1.02-2.39-1.02-5.56 0-1.8.6-3.57t1.96-3.38q1.35-1.61 3.52-3.03 2.16-1.43 5.31-2.49t7.34-1.72q4.18-.67 9.56-.81v-2.76q0-4.74-2.02-7.01-2.02-2.28-5.84-2.28-2.76 0-4.58.64-1.82.65-3.2 1.45-1.38.81-2.5 1.45-1.13.65-2.51.65-1.2 0-2.02-.62-.83-.63-1.34-1.45m57.13 3.58v21.16q1.94 2.35 4.21 3.32 2.28.96 4.81.96 2.62 0 4.71-.94 2.1-.94 3.57-2.95 1.47-2 2.25-5.1.79-3.11.79-7.43 0-7.77-2.58-11.25-2.58-3.47-7.41-3.47-3.26 0-5.7 1.5-2.44 1.49-4.65 4.2m0-34.96v26.96q2.86-2.99 6.33-4.76t7.93-1.77q4.1 0 7.39 1.61t5.61 4.62 3.56 7.29q1.25 4.28 1.25 9.62 0 5.75-1.43 10.44t-4.07 8.02q-2.65 3.34-6.37 5.18-3.73 1.84-8.28 1.84-2.21 0-4-.44-1.8-.43-3.32-1.22-1.51-.78-2.78-1.91-1.26-1.12-2.41-2.5l-.51 3.17q-.28 1.2-.94 1.7-.67.51-1.82.51h-7.5v-68.36zm40.99 0h11.36v68.36h-11.36zm31.69 39.33h21.44q0-2.2-.62-4.16-.62-1.95-1.86-3.43-1.25-1.47-3.16-2.32-1.9-.85-4.43-.85-4.93 0-7.76 2.81-2.82 2.8-3.61 7.95m28.98 6.86h-29.21q.28 3.63 1.29 6.28 1.01 2.64 2.67 4.37 1.66 1.72 3.93 2.57 2.28.85 5.04.85t4.76-.64 3.5-1.43q1.49-.78 2.62-1.42 1.13-.65 2.18-.65 1.43 0 2.12 1.06l3.27 4.14q-1.89 2.21-4.24 3.71-2.34 1.49-4.9 2.39-2.55.89-5.19 1.26-2.65.37-5.13.37-4.92 0-9.16-1.63-4.23-1.64-7.36-4.83-3.12-3.2-4.92-7.92-1.79-4.71-1.79-10.92 0-4.83 1.56-9.09 1.57-4.25 4.49-7.4t7.13-4.99 9.5-1.84q4.46 0 8.23 1.42 3.77 1.43 6.49 4.17 2.71 2.73 4.25 6.71t1.54 9.09q0 2.57-.55 3.47t-2.12.9"/></svg>